M48
;DRILL file {KiCad 4.0.7-e2-6376~58~ubuntu16.04.1} date Wed Feb  7 17:20:41 2018
;FORMAT={-:-/ absolute / inch / decimal}
FMAT,2
INCH,TZ
T1C0.016
T2C0.031
T3C0.035
T4C0.039
T5C0.053
T6C0.059
%
G90
G05
M72
T1
X2.83Y-1.53
X2.83Y-1.57
X2.83Y-1.61
X2.87Y-1.53
X2.87Y-1.57
X2.87Y-1.61
X2.91Y-1.53
X2.91Y-1.57
X2.91Y-1.61
X3.Y-2.6
X3.05Y-2.35
X3.05Y-2.4
X3.05Y-2.45
X3.05Y-2.5
X3.05Y-2.55
X3.05Y-2.6
X3.1Y-2.35
X3.1Y-2.4
X3.1Y-2.45
X3.1Y-2.5
X3.1Y-2.55
X3.1Y-2.6
X3.12Y-1.96
X3.5Y-1.75
X3.5Y-2.4
X3.5Y-2.45
X3.5Y-2.5
X3.55Y-1.75
X3.55Y-2.4
X3.55Y-2.45
X3.55Y-2.5
X3.6Y-1.75
X3.6Y-2.4
X3.6Y-2.45
X3.6Y-2.5
X3.65Y-1.75
X3.7Y-1.75
X3.75Y-1.75
X3.8Y-1.75
X3.85Y-1.75
X3.9Y-1.75
X4.02Y-2.68
X4.02Y-2.72
X4.02Y-2.76
X4.06Y-2.68
X4.06Y-2.72
X4.06Y-2.76
X4.1Y-2.68
X4.1Y-2.72
X4.1Y-2.76
X4.26Y-3.04
X4.26Y-3.21
X4.375Y-1.875
X4.375Y-2.175
X4.51Y-3.44
X4.51Y-3.48
X4.55Y-3.44
X4.55Y-3.48
X4.59Y-3.44
X4.59Y-3.48
X4.62Y-2.94
X4.63Y-3.44
X4.63Y-3.48
X4.67Y-3.44
X4.67Y-3.48
X4.71Y-3.44
X4.71Y-3.48
X5.07Y-3.51
X5.08Y-2.94
X5.11Y-3.51
X5.15Y-3.51
X5.19Y-3.51
X5.23Y-3.51
X5.26Y-1.75
X5.26Y-3.14
X5.27Y-1.43
X5.27Y-1.48
X5.27Y-3.49
X5.28Y-3.11
X5.28Y-3.17
X5.3Y-1.75
X5.3Y-3.14
X5.31Y-3.51
X5.32Y-3.11
X5.34Y-1.75
X5.35Y-3.11
X5.35Y-3.51
X5.38Y-1.75
X5.39Y-3.11
X5.39Y-3.51
X5.42Y-1.75
X5.42Y-3.11
X5.43Y-3.51
X5.44Y-3.14
X5.46Y-1.75
X5.46Y-3.11
X5.46Y-3.17
X5.47Y-3.49
X5.48Y-3.14
X5.5Y-1.75
X5.51Y-3.51
X5.54Y-1.75
X5.55Y-3.51
X5.58Y-1.75
X5.59Y-3.51
X5.6Y-1.64
X5.62Y-1.75
X5.63Y-3.51
X5.64Y-1.64
X5.66Y-1.75
X5.67Y-3.51
X5.68Y-1.64
X5.7Y-1.75
X5.72Y-1.64
X5.74Y-1.75
X5.76Y-1.64
X5.8Y-1.48
X5.8Y-1.64
X5.825Y-2.45
X5.84Y-1.64
X5.84Y-2.17
X5.84Y-2.21
X5.84Y-2.25
X5.84Y-2.29
X5.87Y-1.43
X5.875Y-2.45
X5.88Y-2.17
X5.88Y-2.21
X5.88Y-2.25
X5.88Y-2.29
X5.92Y-2.17
X5.92Y-2.21
X5.92Y-2.25
X5.92Y-2.29
X5.925Y-2.45
X5.96Y-2.17
X5.96Y-2.21
X5.96Y-2.25
X5.96Y-2.29
X5.975Y-2.45
X6.025Y-2.45
X6.075Y-2.45
X6.125Y-2.45
X6.175Y-2.45
X6.225Y-2.45
X6.275Y-2.45
X6.325Y-2.45
X6.68Y-2.64
X6.68Y-2.68
X6.68Y-2.72
X6.68Y-2.76
X6.68Y-2.8
X6.68Y-2.84
X6.68Y-2.88
T2
X2.89Y-1.7216
X2.89Y-1.82
X3.375Y-2.3
X3.375Y-2.7
X3.62Y-2.3
X3.62Y-2.7
X3.86Y-2.3
X3.86Y-2.7
X4.215Y-2.3
X4.215Y-2.7
X4.46Y-2.45
X4.46Y-2.5484
X4.72Y-1.6916
X4.72Y-1.79
X4.86Y-2.6
X4.9584Y-2.6
X5.04Y-1.7516
X5.04Y-1.85
X5.32Y-2.35
X5.32Y-2.75
X5.96Y-1.52
X5.96Y-1.64
X6.15Y-2.6
X6.15Y-2.6984
X6.36Y-1.52
X6.36Y-1.64
X6.51Y-2.3
X6.51Y-2.7
T3
X3.2Y-3.4
X3.3Y-3.4
X3.7Y-3.4
X3.8Y-3.4
X4.2Y-3.4
X4.3Y-3.4
T4
X2.875Y-2.05
X2.875Y-2.15
X2.875Y-2.25
X2.875Y-2.35
X2.875Y-2.45
X2.875Y-2.55
X2.875Y-2.65
X2.875Y-2.75
X2.875Y-2.85
X3.0315Y-1.5157
X3.0315Y-1.6157
X3.1315Y-1.5157
X3.1315Y-1.6157
X3.2315Y-1.5157
X3.2315Y-1.6157
X3.3315Y-1.5157
X3.3315Y-1.6157
X3.4315Y-1.5157
X3.4315Y-1.6157
X3.5315Y-1.5157
X3.5315Y-1.6157
X3.6315Y-1.5157
X3.6315Y-1.6157
X3.7315Y-1.5157
X3.7315Y-1.6157
X3.8315Y-1.5157
X3.8315Y-1.6157
X3.9315Y-1.5157
X3.9315Y-1.6157
X4.0315Y-1.5157
X4.0315Y-1.6157
X4.1315Y-1.5157
X4.1315Y-1.6157
X4.2315Y-1.5157
X4.2315Y-1.6157
X4.3315Y-1.5157
X4.3315Y-1.6157
X4.4315Y-1.5157
X4.4315Y-1.6157
X4.5315Y-1.5157
X4.5315Y-1.6157
X4.675Y-2.05
X4.675Y-2.15
X4.675Y-2.25
X4.675Y-2.35
X4.675Y-2.45
X4.675Y-2.55
X4.675Y-2.65
X4.675Y-2.75
X4.675Y-2.85
X5.Y-1.6
X5.1Y-1.6
X5.15Y-2.05
X5.15Y-2.15
X5.15Y-2.25
X5.15Y-2.35
X5.15Y-2.45
X5.15Y-2.55
X5.15Y-2.65
X5.15Y-2.75
X5.15Y-2.85
X5.2Y-1.6
X5.3Y-1.6
X5.4Y-1.6
X5.5Y-1.6
X6.5Y-1.6
X6.6Y-1.6
X6.7Y-1.6
X6.8Y-1.6
X6.9Y-1.6
X6.95Y-2.05
X6.95Y-2.15
X6.95Y-2.25
X6.95Y-2.35
X6.95Y-2.45
X6.95Y-2.55
X6.95Y-2.65
X6.95Y-2.75
X6.95Y-2.85
T5
X2.8969Y-3.125
X2.9969Y-3.025
X2.9969Y-3.225
X3.0969Y-3.125
X3.5Y-3.125
X3.6Y-3.025
X3.6Y-3.225
X3.7Y-3.125
X3.95Y-3.125
X4.05Y-3.025
X4.05Y-3.225
X4.15Y-3.125
X4.5531Y-3.125
X4.6531Y-3.025
X4.6531Y-3.225
X4.7531Y-3.125
X6.125Y-3.125
X6.225Y-3.025
X6.225Y-3.225
X6.325Y-3.125
X6.7281Y-3.125
X6.8281Y-3.025
X6.8281Y-3.225
X6.9281Y-3.125
T6
X5.17Y-3.3
X5.37Y-3.3
X5.57Y-3.3
X5.77Y-3.3
T0
M30
