G04 #@! TF.FileFunction,Soldermask,Top*
%FSLAX46Y46*%
G04 Gerber Fmt 4.6, Leading zero omitted, Abs format (unit mm)*
G04 Created by KiCad (PCBNEW 4.0.7-e2-6376~58~ubuntu16.04.1) date Wed Feb  7 17:19:15 2018*
%MOMM*%
%LPD*%
G01*
G04 APERTURE LIST*
%ADD10C,0.050000*%
%ADD11O,4.400000X2.400000*%
%ADD12R,2.000000X2.000000*%
%ADD13C,2.000000*%
%ADD14R,2.200000X2.200000*%
%ADD15C,2.200000*%
%ADD16C,2.750000*%
%ADD17O,4.400000X9.400000*%
%ADD18C,2.100000*%
%ADD19O,2.000000X2.000000*%
%ADD20O,2.400000X4.400000*%
G04 APERTURE END LIST*
D10*
D11*
X73025000Y-54610000D03*
X73025000Y-59690000D03*
X73025000Y-69850000D03*
X118745000Y-52070000D03*
X118745000Y-62230000D03*
X118745000Y-72390000D03*
X73025000Y-52070000D03*
X73025000Y-57150000D03*
X73025000Y-64770000D03*
X73025000Y-67310000D03*
X73025000Y-72390000D03*
X118745000Y-54610000D03*
X118745000Y-57150000D03*
X118745000Y-59690000D03*
X118745000Y-64770000D03*
X118745000Y-67310000D03*
X118745000Y-69850000D03*
X73025000Y-62230000D03*
D12*
X119888000Y-45466000D03*
D13*
X119888000Y-42966000D03*
D12*
X73406000Y-46228000D03*
D13*
X73406000Y-43728000D03*
D12*
X123444000Y-66040000D03*
D13*
X125944000Y-66040000D03*
X128016000Y-46990000D03*
X128016000Y-44490000D03*
X156210000Y-66040000D03*
X156210000Y-68540000D03*
X113284000Y-62230000D03*
X113284000Y-64730000D03*
D14*
X106680000Y-86360000D03*
D15*
X109220000Y-86360000D03*
D14*
X81280000Y-86360000D03*
D15*
X83820000Y-86360000D03*
D14*
X93980000Y-86360000D03*
D15*
X96520000Y-86360000D03*
D16*
X115650000Y-79375000D03*
X120730000Y-79375000D03*
X105410000Y-79375000D03*
X100330000Y-79375000D03*
X118190000Y-76835000D03*
X118190000Y-81915000D03*
X102870000Y-76835000D03*
X102870000Y-81915000D03*
X78660000Y-79375000D03*
X73580000Y-79375000D03*
X88900000Y-79375000D03*
X93980000Y-79375000D03*
X76120000Y-81915000D03*
X76120000Y-76835000D03*
X91440000Y-81915000D03*
X91440000Y-76835000D03*
X170895000Y-79375000D03*
X175975000Y-79375000D03*
X160655000Y-79375000D03*
X155575000Y-79375000D03*
X173435000Y-76835000D03*
X173435000Y-81915000D03*
X158115000Y-76835000D03*
X158115000Y-81915000D03*
D17*
X131318000Y-83820000D03*
X136398000Y-83820000D03*
X141478000Y-83820000D03*
X146558000Y-83820000D03*
D18*
X77000000Y-38500000D03*
X77000000Y-41040000D03*
X79540000Y-38500000D03*
X79540000Y-41040000D03*
X82080000Y-38500000D03*
X82080000Y-41040000D03*
X84620000Y-38500000D03*
X84620000Y-41040000D03*
X87160000Y-38500000D03*
X87160000Y-41040000D03*
X89700000Y-38500000D03*
X89700000Y-41040000D03*
X92240000Y-38500000D03*
X92240000Y-41040000D03*
X94780000Y-38500000D03*
X94780000Y-41040000D03*
X97320000Y-38500000D03*
X97320000Y-41040000D03*
X99860000Y-38500000D03*
X99860000Y-41040000D03*
X102400000Y-38500000D03*
X102400000Y-41040000D03*
X104940000Y-38500000D03*
X104940000Y-41040000D03*
X107480000Y-38500000D03*
X107480000Y-41040000D03*
X110020000Y-38500000D03*
X110020000Y-41040000D03*
X112560000Y-38500000D03*
X112560000Y-41040000D03*
X115100000Y-38500000D03*
X115100000Y-41040000D03*
D13*
X135128000Y-59690000D03*
D19*
X135128000Y-69850000D03*
D13*
X165354000Y-68580000D03*
D19*
X165354000Y-58420000D03*
D13*
X151384000Y-41656000D03*
D19*
X161544000Y-41656000D03*
D13*
X107061000Y-68580000D03*
D19*
X107061000Y-58420000D03*
D13*
X161544000Y-38608000D03*
D19*
X151384000Y-38608000D03*
D13*
X98044000Y-68580000D03*
D19*
X98044000Y-58420000D03*
D13*
X85725000Y-68580000D03*
D19*
X85725000Y-58420000D03*
D13*
X91948000Y-68580000D03*
D19*
X91948000Y-58420000D03*
D11*
X130810000Y-54610000D03*
X130810000Y-59690000D03*
X130810000Y-69850000D03*
X176530000Y-52070000D03*
X176530000Y-62230000D03*
X176530000Y-72390000D03*
X130810000Y-52070000D03*
X130810000Y-57150000D03*
X130810000Y-64770000D03*
X130810000Y-67310000D03*
X130810000Y-72390000D03*
X176530000Y-54610000D03*
X176530000Y-57150000D03*
X176530000Y-59690000D03*
X176530000Y-64770000D03*
X176530000Y-67310000D03*
X176530000Y-69850000D03*
X130810000Y-62230000D03*
D20*
X175260000Y-40640000D03*
X172720000Y-40640000D03*
X170180000Y-40640000D03*
X167640000Y-40640000D03*
X165100000Y-40640000D03*
X139700000Y-40640000D03*
X137160000Y-40640000D03*
X134620000Y-40640000D03*
X132080000Y-40640000D03*
X129540000Y-40640000D03*
X127000000Y-40640000D03*
M02*
