M48
INCH,TZ
T1C0.016
T2C0.031
T3C0.035
T4C0.039
T5C0.053
T6C0.059
%
G90
G05
T1
X28300Y-15300
X28300Y-15700
X28300Y-16100
X28700Y-15300
X28700Y-15700
X28700Y-16100
X29100Y-15300
X29100Y-15700
X29100Y-16100
X30000Y-26000
X30500Y-23500
X30500Y-24000
X30500Y-24500
X30500Y-25000
X30500Y-25500
X30500Y-26000
X31000Y-23500
X31000Y-24000
X31000Y-24500
X31000Y-25000
X31000Y-25500
X31000Y-26000
X31200Y-19600
X35000Y-17500
X35000Y-24000
X35000Y-24500
X35000Y-25000
X35500Y-17500
X35500Y-24000
X35500Y-24500
X35500Y-25000
X36000Y-17500
X36000Y-24000
X36000Y-24500
X36000Y-25000
X36500Y-17500
X37000Y-17500
X37500Y-17500
X38000Y-17500
X38500Y-17500
X39000Y-17500
X40200Y-26800
X40200Y-27200
X40200Y-27600
X40600Y-26800
X40600Y-27200
X40600Y-27600
X41000Y-26800
X41000Y-27200
X41000Y-27600
X42600Y-30400
X42600Y-32100
X43750Y-18750
X43750Y-21750
X45100Y-34400
X45100Y-34800
X45500Y-34400
X45500Y-34800
X45900Y-34400
X45900Y-34800
X46200Y-29400
X46300Y-34400
X46300Y-34800
X46700Y-34400
X46700Y-34800
X47100Y-34400
X47100Y-34800
X50700Y-35100
X50800Y-29400
X51100Y-35100
X51500Y-35100
X51900Y-35100
X52300Y-35100
X52600Y-17500
X52600Y-31400
X52700Y-14300
X52700Y-14800
X52700Y-34900
X52800Y-31100
X52800Y-31700
X53000Y-17500
X53000Y-31400
X53100Y-35100
X53200Y-31100
X53400Y-17500
X53500Y-31100
X53500Y-35100
X53800Y-17500
X53900Y-31100
X53900Y-35100
X54200Y-17500
X54200Y-31100
X54300Y-35100
X54400Y-31400
X54600Y-17500
X54600Y-31100
X54600Y-31700
X54700Y-34900
X54800Y-31400
X55000Y-17500
X55100Y-35100
X55400Y-17500
X55500Y-35100
X55800Y-17500
X55900Y-35100
X56000Y-16400
X56200Y-17500
X56300Y-35100
X56400Y-16400
X56600Y-17500
X56700Y-35100
X56800Y-16400
X57000Y-17500
X57200Y-16400
X57400Y-17500
X57600Y-16400
X58000Y-14800
X58000Y-16400
X58250Y-24500
X58400Y-16400
X58400Y-21700
X58400Y-22100
X58400Y-22500
X58400Y-22900
X58700Y-14300
X58750Y-24500
X58800Y-21700
X58800Y-22100
X58800Y-22500
X58800Y-22900
X59200Y-21700
X59200Y-22100
X59200Y-22500
X59200Y-22900
X59250Y-24500
X59600Y-21700
X59600Y-22100
X59600Y-22500
X59600Y-22900
X59750Y-24500
X60250Y-24500
X60750Y-24500
X61250Y-24500
X61750Y-24500
X62250Y-24500
X62750Y-24500
X63250Y-24500
X66800Y-26400
X66800Y-26800
X66800Y-27200
X66800Y-27600
X66800Y-28000
X66800Y-28400
X66800Y-28800
T2
X28900Y-17216
X28900Y-18200
X33750Y-23000
X33750Y-27000
X36200Y-23000
X36200Y-27000
X38600Y-23000
X38600Y-27000
X42150Y-23000
X42150Y-27000
X44600Y-24500
X44600Y-25484
X47200Y-16916
X47200Y-17900
X48600Y-26000
X49584Y-26000
X50400Y-17516
X50400Y-18500
X53200Y-23500
X53200Y-27500
X59600Y-15200
X59600Y-16400
X61500Y-26000
X61500Y-26984
X63600Y-15200
X63600Y-16400
X65100Y-23000
X65100Y-27000
T3
X32000Y-34000
X33000Y-34000
X37000Y-34000
X38000Y-34000
X42000Y-34000
X43000Y-34000
T4
X28750Y-20500
X28750Y-21500
X28750Y-22500
X28750Y-23500
X28750Y-24500
X28750Y-25500
X28750Y-26500
X28750Y-27500
X28750Y-28500
X30315Y-15157
X30315Y-16157
X31315Y-15157
X31315Y-16157
X32315Y-15157
X32315Y-16157
X33315Y-15157
X33315Y-16157
X34315Y-15157
X34315Y-16157
X35315Y-15157
X35315Y-16157
X36315Y-15157
X36315Y-16157
X37315Y-15157
X37315Y-16157
X38315Y-15157
X38315Y-16157
X39315Y-15157
X39315Y-16157
X40315Y-15157
X40315Y-16157
X41315Y-15157
X41315Y-16157
X42315Y-15157
X42315Y-16157
X43315Y-15157
X43315Y-16157
X44315Y-15157
X44315Y-16157
X45315Y-15157
X45315Y-16157
X46750Y-20500
X46750Y-21500
X46750Y-22500
X46750Y-23500
X46750Y-24500
X46750Y-25500
X46750Y-26500
X46750Y-27500
X46750Y-28500
X50000Y-16000
X51000Y-16000
X51500Y-20500
X51500Y-21500
X51500Y-22500
X51500Y-23500
X51500Y-24500
X51500Y-25500
X51500Y-26500
X51500Y-27500
X51500Y-28500
X52000Y-16000
X53000Y-16000
X54000Y-16000
X55000Y-16000
X65000Y-16000
X66000Y-16000
X67000Y-16000
X68000Y-16000
X69000Y-16000
X69500Y-20500
X69500Y-21500
X69500Y-22500
X69500Y-23500
X69500Y-24500
X69500Y-25500
X69500Y-26500
X69500Y-27500
X69500Y-28500
T5
X28969Y-31250
X29969Y-30250
X29969Y-32250
X30969Y-31250
X35000Y-31250
X36000Y-30250
X36000Y-32250
X37000Y-31250
X39500Y-31250
X40500Y-30250
X40500Y-32250
X41500Y-31250
X45531Y-31250
X46531Y-30250
X46531Y-32250
X47531Y-31250
X61250Y-31250
X62250Y-30250
X62250Y-32250
X63250Y-31250
X67281Y-31250
X68281Y-30250
X68281Y-32250
X69281Y-31250
T6
X51700Y-33000
X53700Y-33000
X55700Y-33000
X57700Y-33000
T0
M30
